<svg xmlns="http://www.w3.org/2000/svg" version="1.1" viewBox="9.37 14.57 81.25 70.86" stroke="#5aa9e6">
 <path d="m49.203 19.312c-1.0117 1.0391-24.773 25.586-24.773 41.145 0 14.938 10.273 24.973 25.57 24.973 15.293 0 25.57-10.035 25.57-24.973 0-15.555-23.762-40.105-24.773-41.145-0.41797-0.42969-1.1719-0.42969-1.5898 0zm0.79688 63.895c-11.621 0-23.348-7.0352-23.348-22.754 0-13.125 19.172-34.297 23.348-38.754 4.1758 4.457 23.348 25.629 23.348 38.754 0 15.719-11.727 22.754-23.348 22.754zm29.855-68.316c-0.41797-0.42969-1.1719-0.42969-1.5898 0-0.44141 0.44922-10.77 11.125-10.77 18.027 0 6.6602 4.7539 11.309 11.566 11.309 6.8086 0 11.562-4.6523 11.562-11.309 0-6.9062-10.328-17.578-10.77-18.027zm-0.79688 27.117c-4.6484 0-9.3438-2.8086-9.3438-9.0898 0-4.5664 6.1445-12.168 9.3438-15.637 3.1992 3.4688 9.3438 11.07 9.3438 15.637 0 6.2773-4.6914 9.0898-9.3438 9.0898zm-46.559-9.0898c0-6.9062-10.328-17.578-10.77-18.027-0.41797-0.42969-1.1719-0.42969-1.5898 0-0.4375 0.44922-10.77 11.125-10.77 18.027 0 6.6602 4.7539 11.309 11.562 11.309s11.566-4.6523 11.566-11.309zm-11.566 9.0898c-4.6523 0-9.3438-2.8086-9.3438-9.0898 0-4.5664 6.1445-12.168 9.3438-15.637 3.1992 3.4648 9.3438 11.066 9.3438 15.637 0 6.2773-4.6914 9.0898-9.3438 9.0898zm28.59 3.2969-8.2188 3.8438c-0.39063 0.18359-0.64063 0.57422-0.64063 1.0078v6.9805l-7.5781 3.543c-0.39063 0.18359-0.64063 0.57422-0.64063 1.0078v7.6875c0 0.42969 0.25 0.82422 0.64063 1.0078l8.2188 3.8438c0.29687 0.14063 0.64453 0.14063 0.94141 0l7.7461-3.625 7.7461 3.625c0.29688 0.14063 0.64453 0.14063 0.94141 0l8.2188-3.8438c0.39062-0.18359 0.64062-0.57422 0.64062-1.0078v-7.6875c0-0.42969-0.25-0.82422-0.64062-1.0078l-7.5781-3.543v-6.9805c0-0.42969-0.25-0.82422-0.64062-1.0078l-8.2188-3.8438c-0.29688-0.14063-0.64453-0.14063-0.94141 0zm-7.7461 26.684-7.1094-3.3242v-6.2734l7.1094-3.3242 7.1094 3.3242v6.2734zm23.543-3.3242-7.1094 3.3242-7.1094-3.3242v-6.2734l7.1094-3.3242 7.1094 3.3242zm-8.2188-17.801v6.2734l-7.1094 3.3242-7.1094-3.3242v-6.2734l7.1094-3.3242zm-10.535 12.297-4.3203-2.0195c-0.29688-0.14062-0.64453-0.14062-0.94141 0l-4.3203 2.0195c-0.39062 0.18359-0.64062 0.57422-0.64062 1.0078v2.7266c0 0.42969 0.25 0.82422 0.64062 1.0078l4.3203 2.0195c0.29687 0.14062 0.64453 0.14062 0.94141 0l4.3203-2.0195c0.39062-0.18359 0.64062-0.57422 0.64062-1.0078v-2.7266c0-0.42969-0.25-0.82422-0.64062-1.0078zm-1.582 3.0234-3.2109 1.5-3.2109-1.5v-1.3125l3.2109-1.5 3.2109 1.5zm12.758-5.0469-4.3203 2.0195c-0.39062 0.18359-0.64062 0.57422-0.64062 1.0078v2.7266c0 0.42969 0.25 0.82422 0.64062 1.0078l4.3203 2.0195c0.29687 0.14062 0.64453 0.14062 0.94141 0l4.3203-2.0195c0.39062-0.18359 0.64062-0.57422 0.64062-1.0078v-2.7266c0-0.42969-0.25-0.82422-0.64062-1.0078l-4.3203-2.0195c-0.29688-0.14062-0.64453-0.14062-0.94141 0zm3.6797 3.7344v1.3125l-3.2109 1.5-3.2109-1.5v-1.3125l3.2109-1.5zm-11.898-15.262-4.3203 2.0195c-0.39062 0.18359-0.64062 0.57422-0.64062 1.0078v2.7266c0 0.42969 0.25 0.82422 0.64062 1.0078l4.3203 2.0195c0.29687 0.14062 0.64453 0.14062 0.94141 0l4.3203-2.0195c0.39062-0.18359 0.64062-0.57422 0.64062-1.0078v-2.7266c0-0.42969-0.25-0.82422-0.64062-1.0078l-4.3203-2.0195c-0.29688-0.14062-0.64453-0.14062-0.94141 0zm3.6797 3.7344v1.3125l-3.2109 1.5-3.2109-1.5v-1.3125l3.2109-1.5z"/></svg>
